<?xml version="1.0" encoding="utf-8" standalone="no"?>
<!DOCTYPE svg PUBLIC "-//W3C//DTD SVG 1.1//EN"
  "http://www.w3.org/Graphics/SVG/1.1/DTD/svg11.dtd">
<svg xmlns:xlink="http://www.w3.org/1999/xlink" width="901.2pt" height="454.8pt" viewBox="0 0 901.2 454.8" xmlns="http://www.w3.org/2000/svg" version="1.1">
 <metadata>
  <rdf:RDF xmlns:dc="http://purl.org/dc/elements/1.1/" xmlns:cc="http://creativecommons.org/ns#" xmlns:rdf="http://www.w3.org/1999/02/22-rdf-syntax-ns#">
   <cc:Work>
    <dc:type rdf:resource="http://purl.org/dc/dcmitype/StillImage"/>
    <dc:date>2026-09-05T18:57:18.464773</dc:date>
    <dc:format>image/svg+xml</dc:format>
    <dc:creator>
     <cc:Agent>
      <dc:title>Matplotlib v3.11.0, https://matplotlib.org/</dc:title>
     </cc:Agent>
    </dc:creator>
   </cc:Work>
  </rdf:RDF>
 </metadata>
 <defs>
  <style type="text/css">*{stroke-linejoin: round; stroke-linecap: butt}</style>
 </defs>
 <g id="figure_1">
  <g id="patch_1">
   <path d="M 0 454.8 
L 901.2 454.8 
L 901.2 0 
L 0 0 
z
" style="fill: #ffffff"/>
  </g>
  <g id="axes_1">
   <g id="patch_2">
    <path d="M 30.085161 127.309091 
L 141.650323 127.309091 
Q 150.232258 127.309091 150.232258 119.301818 
L 150.232258 75.261818 
Q 150.232258 67.254545 141.650323 67.254545 
L 30.085161 67.254545 
Q 21.503226 67.254545 21.503226 75.261818 
L 21.503226 119.301818 
Q 21.503226 127.309091 30.085161 127.309091 
z
" clip-path="url(#pe043d93a02)" style="fill: #eaf1fa; stroke: #2f6db3; stroke-width: 1.7; stroke-linejoin: miter"/>
   </g>
   <g id="patch_3">
    <path d="M 30.085161 220.727273 
L 141.650323 220.727273 
Q 150.232258 220.727273 150.232258 212.72 
L 150.232258 168.68 
Q 150.232258 160.672727 141.650323 160.672727 
L 30.085161 160.672727 
Q 21.503226 160.672727 21.503226 168.68 
L 21.503226 212.72 
Q 21.503226 220.727273 30.085161 220.727273 
z
" clip-path="url(#pe043d93a02)" style="fill: #eaf1fa; stroke: #2f6db3; stroke-width: 1.7; stroke-linejoin: miter"/>
   </g>
   <g id="patch_4">
    <path d="M 201.723871 174.018182 
L 298.985806 174.018182 
Q 307.567742 174.018182 307.567742 166.010909 
L 307.567742 121.970909 
Q 307.567742 113.963636 298.985806 113.963636 
L 201.723871 113.963636 
Q 193.141935 113.963636 193.141935 121.970909 
L 193.141935 166.010909 
Q 193.141935 174.018182 201.723871 174.018182 
z
" clip-path="url(#pe043d93a02)" style="fill: #eaf1fa; stroke: #2f6db3; stroke-width: 1.7; stroke-linejoin: miter"/>
   </g>
   <g id="patch_5">
    <path d="M 150.232258 97.281818 
Q 171.687097 115.631818 191.782489 132.819104 
" clip-path="url(#pe043d93a02)" style="fill: none; stroke: #2f6db3; stroke-width: 1.6; stroke-linecap: round"/>
    <path d="M 189.346683 127.051362 
L 191.782489 132.819104 
L 185.706812 131.307103 
z
" clip-path="url(#pe043d93a02)" style="fill: #2f6db3; stroke: #2f6db3; stroke-width: 1.6; stroke-linecap: round"/>
   </g>
   <g id="patch_6">
    <path d="M 150.232258 190.7 
Q 171.687097 172.35 191.782489 155.162714 
" clip-path="url(#pe043d93a02)" style="fill: none; stroke: #2f6db3; stroke-width: 1.6; stroke-linecap: round"/>
    <path d="M 185.706812 156.674715 
L 191.782489 155.162714 
L 189.346683 160.930457 
z
" clip-path="url(#pe043d93a02)" style="fill: #2f6db3; stroke: #2f6db3; stroke-width: 1.6; stroke-linecap: round"/>
   </g>
   <g id="patch_7">
    <path d="M 307.567742 133.981818 
Q 336.174194 103.954545 363.546748 75.222455 
" clip-path="url(#pe043d93a02)" style="fill: none; stroke: #2f6db3; stroke-width: 1.6; stroke-linecap: round"/>
    <path d="M 357.656757 77.345662 
L 363.546748 75.222455 
L 361.711319 81.208372 
z
" clip-path="url(#pe043d93a02)" style="fill: #2f6db3; stroke: #2f6db3; stroke-width: 1.6; stroke-linecap: round"/>
   </g>
   <g id="patch_8">
    <path d="M 307.567742 143.990909 
Q 336.174194 174.018182 363.546748 202.750272 
" clip-path="url(#pe043d93a02)" style="fill: none; stroke: #2f6db3; stroke-width: 1.6; stroke-linecap: round"/>
    <path d="M 361.711319 196.764355 
L 363.546748 202.750272 
L 357.656757 200.627065 
z
" clip-path="url(#pe043d93a02)" style="fill: #2f6db3; stroke: #2f6db3; stroke-width: 1.6; stroke-linecap: round"/>
   </g>
   <g id="patch_9">
    <path d="M 307.567742 154 
Q 336.174194 232.404545 364.167505 309.128597 
" clip-path="url(#pe043d93a02)" style="fill: none; stroke: #2f6db3; stroke-width: 1.6; stroke-linecap: round"/>
    <path d="M 364.878462 302.908104 
L 364.167505 309.128597 
L 359.617684 304.827535 
z
" clip-path="url(#pe043d93a02)" style="fill: #2f6db3; stroke: #2f6db3; stroke-width: 1.6; stroke-linecap: round"/>
   </g>
   <g id="patch_10">
    <path d="M 359.059355 123.972727 
L 627.96 123.972727 
Q 636.541935 123.972727 636.541935 115.965455 
L 636.541935 31.889091 
Q 636.541935 23.881818 627.96 23.881818 
L 359.059355 23.881818 
Q 350.477419 23.881818 350.477419 31.889091 
L 350.477419 115.965455 
Q 350.477419 123.972727 359.059355 123.972727 
z
" clip-path="url(#pe043d93a02)" style="fill: #fafdfa; stroke-dasharray: 4.81,2.08; stroke-dashoffset: 0; stroke: #3a8f4a; stroke-width: 1.3; stroke-linejoin: miter"/>
   </g>
   <g id="patch_11">
    <path d="M 373.362581 110.627273 
L 470.624516 110.627273 
Q 479.206452 110.627273 479.206452 102.62 
L 479.206452 45.234545 
Q 479.206452 37.227273 470.624516 37.227273 
L 373.362581 37.227273 
Q 364.780645 37.227273 364.780645 45.234545 
L 364.780645 102.62 
Q 364.780645 110.627273 373.362581 110.627273 
z
" clip-path="url(#pe043d93a02)" style="fill: #eaf1fa; stroke: #2f6db3; stroke-width: 1.7; stroke-linejoin: miter"/>
   </g>
   <g id="patch_12">
    <path d="M 516.394839 110.627273 
L 613.656774 110.627273 
Q 622.23871 110.627273 622.23871 102.62 
L 622.23871 45.234545 
Q 622.23871 37.227273 613.656774 37.227273 
L 516.394839 37.227273 
Q 507.812903 37.227273 507.812903 45.234545 
L 507.812903 102.62 
Q 507.812903 110.627273 516.394839 110.627273 
z
" clip-path="url(#pe043d93a02)" style="fill: #fbf5e6; stroke: #c9962a; stroke-width: 1.7; stroke-linejoin: miter"/>
   </g>
   <g id="patch_13">
    <path d="M 359.059355 254.090909 
L 627.96 254.090909 
Q 636.541935 254.090909 636.541935 246.083636 
L 636.541935 162.007273 
Q 636.541935 154 627.96 154 
L 359.059355 154 
Q 350.477419 154 350.477419 162.007273 
L 350.477419 246.083636 
Q 350.477419 254.090909 359.059355 254.090909 
z
" clip-path="url(#pe043d93a02)" style="fill: #fafdfa; stroke-dasharray: 4.81,2.08; stroke-dashoffset: 0; stroke: #3a8f4a; stroke-width: 1.3; stroke-linejoin: miter"/>
   </g>
   <g id="patch_14">
    <path d="M 373.362581 240.745455 
L 470.624516 240.745455 
Q 479.206452 240.745455 479.206452 232.738182 
L 479.206452 175.352727 
Q 479.206452 167.345455 470.624516 167.345455 
L 373.362581 167.345455 
Q 364.780645 167.345455 364.780645 175.352727 
L 364.780645 232.738182 
Q 364.780645 240.745455 373.362581 240.745455 
z
" clip-path="url(#pe043d93a02)" style="fill: #eaf1fa; stroke: #2f6db3; stroke-width: 1.7; stroke-linejoin: miter"/>
   </g>
   <g id="patch_15">
    <path d="M 516.394839 240.745455 
L 613.656774 240.745455 
Q 622.23871 240.745455 622.23871 232.738182 
L 622.23871 175.352727 
Q 622.23871 167.345455 613.656774 167.345455 
L 516.394839 167.345455 
Q 507.812903 167.345455 507.812903 175.352727 
L 507.812903 232.738182 
Q 507.812903 240.745455 516.394839 240.745455 
z
" clip-path="url(#pe043d93a02)" style="fill: #fbf5e6; stroke: #c9962a; stroke-width: 1.7; stroke-linejoin: miter"/>
   </g>
   <g id="patch_16">
    <path d="M 373.362581 347.509091 
L 470.624516 347.509091 
Q 479.206452 347.509091 479.206452 339.501818 
L 479.206452 282.116364 
Q 479.206452 274.109091 470.624516 274.109091 
L 373.362581 274.109091 
Q 364.780645 274.109091 364.780645 282.116364 
L 364.780645 339.501818 
Q 364.780645 347.509091 373.362581 347.509091 
z
" clip-path="url(#pe043d93a02)" style="fill: #eaf1fa; stroke: #2f6db3; stroke-width: 1.7; stroke-linejoin: miter"/>
   </g>
   <g id="patch_17">
    <path d="M 659.427097 327.490909 
L 720.930968 327.490909 
Q 729.512903 327.490909 729.512903 319.483636 
L 729.512903 275.443636 
Q 729.512903 267.436364 720.930968 267.436364 
L 659.427097 267.436364 
Q 650.845161 267.436364 650.845161 275.443636 
L 650.845161 319.483636 
Q 650.845161 327.490909 659.427097 327.490909 
z
" clip-path="url(#pe043d93a02)" style="fill: #eef7ef; stroke: #3a8f4a; stroke-width: 1.7; stroke-linejoin: miter"/>
   </g>
   <g id="patch_18">
    <path d="M 759.549677 67.254545 
L 878.266452 67.254545 
Q 886.848387 67.254545 886.848387 59.247273 
L 886.848387 28.552727 
Q 886.848387 20.545455 878.266452 20.545455 
L 759.549677 20.545455 
Q 750.967742 20.545455 750.967742 28.552727 
L 750.967742 59.247273 
Q 750.967742 67.254545 759.549677 67.254545 
z
" clip-path="url(#pe043d93a02)" style="fill: #eef7ef; stroke: #3a8f4a; stroke-width: 1.7; stroke-linejoin: miter"/>
   </g>
   <g id="patch_19">
    <path d="M 759.549677 127.309091 
L 878.266452 127.309091 
Q 886.848387 127.309091 886.848387 119.301818 
L 886.848387 88.607273 
Q 886.848387 80.6 878.266452 80.6 
L 759.549677 80.6 
Q 750.967742 80.6 750.967742 88.607273 
L 750.967742 119.301818 
Q 750.967742 127.309091 759.549677 127.309091 
z
" clip-path="url(#pe043d93a02)" style="fill: #eef7ef; stroke: #3a8f4a; stroke-width: 1.7; stroke-linejoin: miter"/>
   </g>
   <g id="patch_20">
    <path d="M 759.549677 187.363636 
L 878.266452 187.363636 
Q 886.848387 187.363636 886.848387 179.356364 
L 886.848387 148.661818 
Q 886.848387 140.654545 878.266452 140.654545 
L 759.549677 140.654545 
Q 750.967742 140.654545 750.967742 148.661818 
L 750.967742 179.356364 
Q 750.967742 187.363636 759.549677 187.363636 
z
" clip-path="url(#pe043d93a02)" style="fill: #eef7ef; stroke: #3a8f4a; stroke-width: 1.7; stroke-linejoin: miter"/>
   </g>
   <g id="patch_21">
    <path d="M 759.549677 320.818182 
L 878.266452 320.818182 
Q 886.848387 320.818182 886.848387 312.810909 
L 886.848387 282.116364 
Q 886.848387 274.109091 878.266452 274.109091 
L 759.549677 274.109091 
Q 750.967742 274.109091 750.967742 282.116364 
L 750.967742 312.810909 
Q 750.967742 320.818182 759.549677 320.818182 
z
" clip-path="url(#pe043d93a02)" style="fill: #eef7ef; stroke: #3a8f4a; stroke-width: 1.7; stroke-linejoin: miter"/>
   </g>
   <g id="patch_22">
    <path d="M 759.549677 380.872727 
L 878.266452 380.872727 
Q 886.848387 380.872727 886.848387 372.865455 
L 886.848387 342.170909 
Q 886.848387 334.163636 878.266452 334.163636 
L 759.549677 334.163636 
Q 750.967742 334.163636 750.967742 342.170909 
L 750.967742 372.865455 
Q 750.967742 380.872727 759.549677 380.872727 
z
" clip-path="url(#pe043d93a02)" style="fill: #eef7ef; stroke: #3a8f4a; stroke-width: 1.7; stroke-linejoin: miter"/>
   </g>
   <g id="patch_23">
    <path d="M 759.549677 440.927273 
L 878.266452 440.927273 
Q 886.848387 440.927273 886.848387 432.92 
L 886.848387 402.225455 
Q 886.848387 394.218182 878.266452 394.218182 
L 759.549677 394.218182 
Q 750.967742 394.218182 750.967742 402.225455 
L 750.967742 432.92 
Q 750.967742 440.927273 759.549677 440.927273 
z
" clip-path="url(#pe043d93a02)" style="fill: #eef7ef; stroke: #3a8f4a; stroke-width: 1.7; stroke-linejoin: miter"/>
   </g>
   <g id="patch_24">
    <path d="M 636.541935 60.581818 
Q 693.754839 52.240909 749.1976 44.158064 
" clip-path="url(#pe043d93a02)" style="fill: none; stroke: #3a8f4a; stroke-width: 1.6; stroke-linecap: round"/>
    <path d="M 743.252245 42.195222 
L 749.1976 44.158064 
L 744.060113 47.736643 
z
" clip-path="url(#pe043d93a02)" style="fill: #3a8f4a; stroke: #3a8f4a; stroke-width: 1.6; stroke-linecap: round"/>
   </g>
   <g id="patch_25">
    <path d="M 636.541935 87.272727 
Q 693.754839 95.613636 749.1976 103.696481 
" clip-path="url(#pe043d93a02)" style="fill: none; stroke: #3a8f4a; stroke-width: 1.6; stroke-linecap: round"/>
    <path d="M 744.060113 100.117903 
L 749.1976 103.696481 
L 743.252245 105.659324 
z
" clip-path="url(#pe043d93a02)" style="fill: #3a8f4a; stroke: #3a8f4a; stroke-width: 1.6; stroke-linecap: round"/>
   </g>
   <g id="patch_26">
    <path d="M 636.541935 180.690909 
Q 693.754839 172.35 749.1976 164.267155 
" clip-path="url(#pe043d93a02)" style="fill: none; stroke: #3a8f4a; stroke-width: 1.6; stroke-linecap: round"/>
    <path d="M 743.252245 162.304313 
L 749.1976 164.267155 
L 744.060113 167.845734 
z
" clip-path="url(#pe043d93a02)" style="fill: #3a8f4a; stroke: #3a8f4a; stroke-width: 1.6; stroke-linecap: round"/>
   </g>
   <g id="patch_27">
    <path d="M 636.541935 227.4 
Q 643.693548 254.090909 650.382183 279.053914 
" clip-path="url(#pe043d93a02)" style="fill: none; stroke: #3a8f4a; stroke-width: 1.6; stroke-linecap: round"/>
    <path d="M 651.637431 272.920045 
L 650.382183 279.053914 
L 646.228236 274.369395 
z
" clip-path="url(#pe043d93a02)" style="fill: #3a8f4a; stroke: #3a8f4a; stroke-width: 1.6; stroke-linecap: round"/>
   </g>
   <g id="patch_28">
    <path d="M 729.512903 297.463636 
Q 740.240323 297.463636 749.178888 297.463636 
" clip-path="url(#pe043d93a02)" style="fill: none; stroke: #3a8f4a; stroke-width: 1.6; stroke-linecap: round"/>
    <path d="M 743.578888 294.663636 
L 749.178888 297.463636 
L 743.578888 300.263636 
z
" clip-path="url(#pe043d93a02)" style="fill: #3a8f4a; stroke: #3a8f4a; stroke-width: 1.6; stroke-linecap: round"/>
   </g>
   <g id="patch_29">
    <path d="M 479.206452 307.472727 
Q 615.087097 332.495455 749.208469 357.194208 
" clip-path="url(#pe043d93a02)" style="fill: none; stroke: #3a8f4a; stroke-width: 1.6; stroke-linecap: round"/>
    <path d="M 744.208174 353.426311 
L 749.208469 357.194208 
L 743.193974 358.933706 
z
" clip-path="url(#pe043d93a02)" style="fill: #3a8f4a; stroke: #3a8f4a; stroke-width: 1.6; stroke-linecap: round"/>
   </g>
   <g id="patch_30">
    <path d="M 479.206452 320.818182 
Q 615.087097 369.195455 749.282508 416.972737 
" clip-path="url(#pe043d93a02)" style="fill: none; stroke: #3a8f4a; stroke-width: 1.6; stroke-linecap: round"/>
    <path d="M 744.946025 412.456664 
L 749.282508 416.972737 
L 743.06776 417.73228 
z
" clip-path="url(#pe043d93a02)" style="fill: #3a8f4a; stroke: #3a8f4a; stroke-width: 1.6; stroke-linecap: round"/>
   </g>
   <g id="text_1">
    <!-- Question -->
    <g style="fill: #2f6db3" transform="translate(50.481648 101.579162) scale(0.14 -0.14)">
     <defs>
      <path id="DejaVuSans-Bold-34" d="M 2847 -84 
L 2753 -84 
Q 1600 -84 959 553 
Q 319 1191 319 2328 
Q 319 3463 958 4106 
Q 1597 4750 2719 4750 
Q 3853 4750 4486 4112 
Q 5119 3475 5119 2328 
Q 5119 1541 4783 972 
Q 4447 403 3816 116 
L 4756 -934 
L 3609 -934 
L 2847 -84 
z
M 2719 3878 
Q 2169 3878 1866 3472 
Q 1563 3066 1563 2328 
Q 1563 1578 1859 1179 
Q 2156 781 2719 781 
Q 3272 781 3575 1187 
Q 3878 1594 3878 2328 
Q 3878 3066 3575 3472 
Q 3272 3878 2719 3878 
z
" transform="scale(0.015625)"/>
      <path id="DejaVuSans-Bold-58" d="M 500 1363 
L 500 3500 
L 1625 3500 
L 1625 3150 
Q 1625 2866 1622 2436 
Q 1619 2006 1619 1863 
Q 1619 1441 1641 1255 
Q 1663 1069 1716 984 
Q 1784 875 1895 815 
Q 2006 756 2150 756 
Q 2500 756 2700 1025 
Q 2900 1294 2900 1772 
L 2900 3500 
L 4019 3500 
L 4019 0 
L 2900 0 
L 2900 506 
Q 2647 200 2364 54 
Q 2081 -91 1741 -91 
Q 1134 -91 817 281 
Q 500 653 500 1363 
z
" transform="scale(0.015625)"/>
      <path id="DejaVuSans-Bold-48" d="M 4031 1759 
L 4031 1441 
L 1416 1441 
Q 1456 1047 1700 850 
Q 1944 653 2381 653 
Q 2734 653 3104 758 
Q 3475 863 3866 1075 
L 3866 213 
Q 3469 63 3072 -14 
Q 2675 -91 2278 -91 
Q 1328 -91 801 392 
Q 275 875 275 1747 
Q 275 2603 792 3093 
Q 1309 3584 2216 3584 
Q 3041 3584 3536 3087 
Q 4031 2591 4031 1759 
z
M 2881 2131 
Q 2881 2450 2695 2645 
Q 2509 2841 2209 2841 
Q 1884 2841 1681 2658 
Q 1478 2475 1428 2131 
L 2881 2131 
z
" transform="scale(0.015625)"/>
      <path id="DejaVuSans-Bold-56" d="M 3272 3391 
L 3272 2541 
Q 2913 2691 2578 2766 
Q 2244 2841 1947 2841 
Q 1628 2841 1473 2761 
Q 1319 2681 1319 2516 
Q 1319 2381 1436 2309 
Q 1553 2238 1856 2203 
L 2053 2175 
Q 2913 2066 3209 1816 
Q 3506 1566 3506 1031 
Q 3506 472 3093 190 
Q 2681 -91 1863 -91 
Q 1516 -91 1145 -36 
Q 775 19 384 128 
L 384 978 
Q 719 816 1070 734 
Q 1422 653 1784 653 
Q 2113 653 2278 743 
Q 2444 834 2444 1013 
Q 2444 1163 2330 1236 
Q 2216 1309 1875 1350 
L 1678 1375 
Q 931 1469 631 1722 
Q 331 1975 331 2491 
Q 331 3047 712 3315 
Q 1094 3584 1881 3584 
Q 2191 3584 2531 3537 
Q 2872 3491 3272 3391 
z
" transform="scale(0.015625)"/>
      <path id="DejaVuSans-Bold-57" d="M 1759 4494 
L 1759 3500 
L 2913 3500 
L 2913 2700 
L 1759 2700 
L 1759 1216 
Q 1759 972 1856 886 
Q 1953 800 2241 800 
L 2816 800 
L 2816 0 
L 1856 0 
Q 1194 0 917 276 
Q 641 553 641 1216 
L 641 2700 
L 84 2700 
L 84 3500 
L 641 3500 
L 641 4494 
L 1759 4494 
z
" transform="scale(0.015625)"/>
      <path id="DejaVuSans-Bold-4c" d="M 538 3500 
L 1656 3500 
L 1656 0 
L 538 0 
L 538 3500 
z
M 538 4863 
L 1656 4863 
L 1656 3950 
L 538 3950 
L 538 4863 
z
" transform="scale(0.015625)"/>
      <path id="DejaVuSans-Bold-52" d="M 2203 2784 
Q 1831 2784 1636 2517 
Q 1441 2250 1441 1747 
Q 1441 1244 1636 976 
Q 1831 709 2203 709 
Q 2569 709 2762 976 
Q 2956 1244 2956 1747 
Q 2956 2250 2762 2517 
Q 2569 2784 2203 2784 
z
M 2203 3584 
Q 3106 3584 3614 3096 
Q 4122 2609 4122 1747 
Q 4122 884 3614 396 
Q 3106 -91 2203 -91 
Q 1297 -91 786 396 
Q 275 884 275 1747 
Q 275 2609 786 3096 
Q 1297 3584 2203 3584 
z
" transform="scale(0.015625)"/>
      <path id="DejaVuSans-Bold-51" d="M 4056 2131 
L 4056 0 
L 2931 0 
L 2931 347 
L 2931 1631 
Q 2931 2084 2911 2256 
Q 2891 2428 2841 2509 
Q 2775 2619 2662 2680 
Q 2550 2741 2406 2741 
Q 2056 2741 1856 2470 
Q 1656 2200 1656 1722 
L 1656 0 
L 538 0 
L 538 3500 
L 1656 3500 
L 1656 2988 
Q 1909 3294 2193 3439 
Q 2478 3584 2822 3584 
Q 3428 3584 3742 3212 
Q 4056 2841 4056 2131 
z
" transform="scale(0.015625)"/>
     </defs>
     <use xlink:href="#DejaVuSans-Bold-34"/>
     <use xlink:href="#DejaVuSans-Bold-58" transform="translate(85.015625 0)"/>
     <use xlink:href="#DejaVuSans-Bold-48" transform="translate(156.203125 0)"/>
     <use xlink:href="#DejaVuSans-Bold-56" transform="translate(224.03125 0)"/>
     <use xlink:href="#DejaVuSans-Bold-57" transform="translate(283.546875 0)"/>
     <use xlink:href="#DejaVuSans-Bold-4c" transform="translate(331.34375 0)"/>
     <use xlink:href="#DejaVuSans-Bold-52" transform="translate(365.625 0)"/>
     <use xlink:href="#DejaVuSans-Bold-51" transform="translate(434.328125 0)"/>
    </g>
   </g>
   <g id="text_2">
    <!-- Data -->
    <g style="fill: #2f6db3" transform="translate(67.263054 195.703906) scale(0.14 -0.14)">
     <defs>
      <path id="DejaVuSans-Bold-27" d="M 1791 3756 
L 1791 909 
L 2222 909 
Q 2959 909 3348 1275 
Q 3738 1641 3738 2338 
Q 3738 3031 3350 3393 
Q 2963 3756 2222 3756 
L 1791 3756 
z
M 588 4666 
L 1856 4666 
Q 2919 4666 3439 4514 
Q 3959 4363 4331 4000 
Q 4659 3684 4818 3271 
Q 4978 2859 4978 2338 
Q 4978 1809 4818 1395 
Q 4659 981 4331 666 
Q 3956 303 3431 151 
Q 2906 0 1856 0 
L 588 0 
L 588 4666 
z
" transform="scale(0.015625)"/>
      <path id="DejaVuSans-Bold-44" d="M 2106 1575 
Q 1756 1575 1579 1456 
Q 1403 1338 1403 1106 
Q 1403 894 1545 773 
Q 1688 653 1941 653 
Q 2256 653 2472 879 
Q 2688 1106 2688 1447 
L 2688 1575 
L 2106 1575 
z
M 3816 1997 
L 3816 0 
L 2688 0 
L 2688 519 
Q 2463 200 2181 54 
Q 1900 -91 1497 -91 
Q 953 -91 614 226 
Q 275 544 275 1050 
Q 275 1666 698 1953 
Q 1122 2241 2028 2241 
L 2688 2241 
L 2688 2328 
Q 2688 2594 2478 2717 
Q 2269 2841 1825 2841 
Q 1466 2841 1156 2769 
Q 847 2697 581 2553 
L 581 3406 
Q 941 3494 1303 3539 
Q 1666 3584 2028 3584 
Q 2975 3584 3395 3211 
Q 3816 2838 3816 1997 
z
" transform="scale(0.015625)"/>
     </defs>
     <use xlink:href="#DejaVuSans-Bold-27"/>
     <use xlink:href="#DejaVuSans-Bold-44" transform="translate(83.015625 0)"/>
     <use xlink:href="#DejaVuSans-Bold-57" transform="translate(150.5 0)"/>
     <use xlink:href="#DejaVuSans-Bold-44" transform="translate(198.296875 0)"/>
    </g>
   </g>
   <g id="text_3">
    <!-- Agent -->
    <g style="fill: #2f6db3" transform="translate(226.850151 147.583878) scale(0.14 -0.14)">
     <defs>
      <path id="DejaVuSans-Bold-24" d="M 3419 850 
L 1538 850 
L 1241 0 
L 31 0 
L 1759 4666 
L 3194 4666 
L 4922 0 
L 3713 0 
L 3419 850 
z
M 1838 1716 
L 3116 1716 
L 2478 3572 
L 1838 1716 
z
" transform="scale(0.015625)"/>
      <path id="DejaVuSans-Bold-4a" d="M 2919 594 
Q 2688 288 2409 144 
Q 2131 0 1766 0 
Q 1125 0 706 504 
Q 288 1009 288 1791 
Q 288 2575 706 3076 
Q 1125 3578 1766 3578 
Q 2131 3578 2409 3434 
Q 2688 3291 2919 2981 
L 2919 3500 
L 4044 3500 
L 4044 353 
Q 4044 -491 3511 -936 
Q 2978 -1381 1966 -1381 
Q 1638 -1381 1331 -1331 
Q 1025 -1281 716 -1178 
L 716 -306 
Q 1009 -475 1290 -558 
Q 1572 -641 1856 -641 
Q 2406 -641 2662 -400 
Q 2919 -159 2919 353 
L 2919 594 
z
M 2181 2772 
Q 1834 2772 1640 2515 
Q 1447 2259 1447 1791 
Q 1447 1309 1634 1061 
Q 1822 813 2181 813 
Q 2531 813 2725 1069 
Q 2919 1325 2919 1791 
Q 2919 2259 2725 2515 
Q 2531 2772 2181 2772 
z
" transform="scale(0.015625)"/>
     </defs>
     <use xlink:href="#DejaVuSans-Bold-24"/>
     <use xlink:href="#DejaVuSans-Bold-4a" transform="translate(77.390625 0)"/>
     <use xlink:href="#DejaVuSans-Bold-48" transform="translate(148.96875 0)"/>
     <use xlink:href="#DejaVuSans-Bold-51" transform="translate(216.796875 0)"/>
     <use xlink:href="#DejaVuSans-Bold-57" transform="translate(287.984375 0)"/>
    </g>
   </g>
   <g id="text_4">
    <!-- Agent -->
    <g style="fill: #2f6db3" transform="translate(398.488861 69.120241) scale(0.14 -0.14)">
     <use xlink:href="#DejaVuSans-Bold-24"/>
     <use xlink:href="#DejaVuSans-Bold-4a" transform="translate(77.390625 0)"/>
     <use xlink:href="#DejaVuSans-Bold-48" transform="translate(148.96875 0)"/>
     <use xlink:href="#DejaVuSans-Bold-51" transform="translate(216.796875 0)"/>
     <use xlink:href="#DejaVuSans-Bold-57" transform="translate(287.984375 0)"/>
    </g>
    <!-- tool path -->
    <g style="fill: #2f6db3" transform="translate(386.129486 86.190398) scale(0.14 -0.14)">
     <defs>
      <path id="DejaVuSans-Bold-4f" d="M 538 4863 
L 1656 4863 
L 1656 0 
L 538 0 
L 538 4863 
z
" transform="scale(0.015625)"/>
      <path id="DejaVuSans-Bold-3" transform="scale(0.015625)"/>
      <path id="DejaVuSans-Bold-53" d="M 1656 506 
L 1656 -1331 
L 538 -1331 
L 538 3500 
L 1656 3500 
L 1656 2988 
Q 1888 3294 2169 3439 
Q 2450 3584 2816 3584 
Q 3463 3584 3878 3070 
Q 4294 2556 4294 1747 
Q 4294 938 3878 423 
Q 3463 -91 2816 -91 
Q 2450 -91 2169 54 
Q 1888 200 1656 506 
z
M 2400 2772 
Q 2041 2772 1848 2508 
Q 1656 2244 1656 1747 
Q 1656 1250 1848 986 
Q 2041 722 2400 722 
Q 2759 722 2948 984 
Q 3138 1247 3138 1747 
Q 3138 2247 2948 2509 
Q 2759 2772 2400 2772 
z
" transform="scale(0.015625)"/>
      <path id="DejaVuSans-Bold-4b" d="M 4056 2131 
L 4056 0 
L 2931 0 
L 2931 347 
L 2931 1625 
Q 2931 2084 2911 2256 
Q 2891 2428 2841 2509 
Q 2775 2619 2662 2680 
Q 2550 2741 2406 2741 
Q 2056 2741 1856 2470 
Q 1656 2200 1656 1722 
L 1656 0 
L 538 0 
L 538 4863 
L 1656 4863 
L 1656 2988 
Q 1909 3294 2193 3439 
Q 2478 3584 2822 3584 
Q 3428 3584 3742 3212 
Q 4056 2841 4056 2131 
z
" transform="scale(0.015625)"/>
     </defs>
     <use xlink:href="#DejaVuSans-Bold-57"/>
     <use xlink:href="#DejaVuSans-Bold-52" transform="translate(47.796875 0)"/>
     <use xlink:href="#DejaVuSans-Bold-52" transform="translate(116.5 0)"/>
     <use xlink:href="#DejaVuSans-Bold-4f" transform="translate(185.203125 0)"/>
     <use xlink:href="#DejaVuSans-Bold-3" transform="translate(219.484375 0)"/>
     <use xlink:href="#DejaVuSans-Bold-53" transform="translate(254.296875 0)"/>
     <use xlink:href="#DejaVuSans-Bold-44" transform="translate(325.875 0)"/>
     <use xlink:href="#DejaVuSans-Bold-57" transform="translate(393.359375 0)"/>
     <use xlink:href="#DejaVuSans-Bold-4b" transform="translate(441.15625 0)"/>
    </g>
   </g>
   <g id="text_5">
    <!-- vs -->
    <g style="fill: #8a8a8a" transform="translate(486.832802 77.04446) scale(0.12 -0.12)">
     <defs>
      <path id="DejaVuSans-Oblique-59" d="M 459 3500 
L 1069 3500 
L 1581 525 
L 3256 3500 
L 3866 3500 
L 1875 0 
L 1100 0 
L 459 3500 
z
" transform="scale(0.015625)"/>
      <path id="DejaVuSans-Oblique-56" d="M 3200 3397 
L 3091 2853 
Q 2863 2978 2609 3040 
Q 2356 3103 2088 3103 
Q 1634 3103 1373 2948 
Q 1113 2794 1113 2528 
Q 1113 2219 1719 2053 
Q 1766 2041 1788 2034 
L 1972 1978 
Q 2547 1819 2739 1644 
Q 2931 1469 2931 1166 
Q 2931 609 2489 259 
Q 2047 -91 1331 -91 
Q 1053 -91 747 -37 
Q 441 16 72 128 
L 184 722 
Q 500 559 806 475 
Q 1113 391 1394 391 
Q 1816 391 2080 572 
Q 2344 753 2344 1031 
Q 2344 1331 1650 1516 
L 1591 1531 
L 1394 1581 
Q 956 1697 753 1886 
Q 550 2075 550 2369 
Q 550 2928 970 3256 
Q 1391 3584 2113 3584 
Q 2397 3584 2667 3537 
Q 2938 3491 3200 3397 
z
" transform="scale(0.015625)"/>
     </defs>
     <use xlink:href="#DejaVuSans-Oblique-59"/>
     <use xlink:href="#DejaVuSans-Oblique-56" transform="translate(59.1875 0)"/>
    </g>
   </g>
   <g id="text_6">
    <!-- Gold -->
    <g style="fill: #c9962a" transform="translate(547.060963 70.746648) scale(0.14 -0.14)">
     <defs>
      <path id="DejaVuSans-Bold-2a" d="M 4781 347 
Q 4331 128 3847 18 
Q 3363 -91 2847 -91 
Q 1681 -91 1000 561 
Q 319 1213 319 2328 
Q 319 3456 1012 4103 
Q 1706 4750 2913 4750 
Q 3378 4750 3804 4662 
Q 4231 4575 4609 4403 
L 4609 3438 
Q 4219 3659 3833 3768 
Q 3447 3878 3059 3878 
Q 2341 3878 1952 3476 
Q 1563 3075 1563 2328 
Q 1563 1588 1938 1184 
Q 2313 781 3003 781 
Q 3191 781 3352 804 
Q 3513 828 3641 878 
L 3641 1784 
L 2906 1784 
L 2906 2591 
L 4781 2591 
L 4781 347 
z
" transform="scale(0.015625)"/>
      <path id="DejaVuSans-Bold-47" d="M 2919 2988 
L 2919 4863 
L 4044 4863 
L 4044 0 
L 2919 0 
L 2919 506 
Q 2688 197 2409 53 
Q 2131 -91 1766 -91 
Q 1119 -91 703 423 
Q 288 938 288 1747 
Q 288 2556 703 3070 
Q 1119 3584 1766 3584 
Q 2128 3584 2408 3439 
Q 2688 3294 2919 2988 
z
M 2181 722 
Q 2541 722 2730 984 
Q 2919 1247 2919 1747 
Q 2919 2247 2730 2509 
Q 2541 2772 2181 2772 
Q 1825 2772 1636 2509 
Q 1447 2247 1447 1747 
Q 1447 1247 1636 984 
Q 1825 722 2181 722 
z
" transform="scale(0.015625)"/>
     </defs>
     <use xlink:href="#DejaVuSans-Bold-2a"/>
     <use xlink:href="#DejaVuSans-Bold-52" transform="translate(82.078125 0)"/>
     <use xlink:href="#DejaVuSans-Bold-4f" transform="translate(150.78125 0)"/>
     <use xlink:href="#DejaVuSans-Bold-47" transform="translate(185.0625 0)"/>
    </g>
    <!-- tool path -->
    <g style="fill: #c9962a" transform="translate(529.161744 86.190398) scale(0.14 -0.14)">
     <use xlink:href="#DejaVuSans-Bold-57"/>
     <use xlink:href="#DejaVuSans-Bold-52" transform="translate(47.796875 0)"/>
     <use xlink:href="#DejaVuSans-Bold-52" transform="translate(116.5 0)"/>
     <use xlink:href="#DejaVuSans-Bold-4f" transform="translate(185.203125 0)"/>
     <use xlink:href="#DejaVuSans-Bold-3" transform="translate(219.484375 0)"/>
     <use xlink:href="#DejaVuSans-Bold-53" transform="translate(254.296875 0)"/>
     <use xlink:href="#DejaVuSans-Bold-44" transform="translate(325.875 0)"/>
     <use xlink:href="#DejaVuSans-Bold-57" transform="translate(393.359375 0)"/>
     <use xlink:href="#DejaVuSans-Bold-4b" transform="translate(441.15625 0)"/>
    </g>
   </g>
   <g id="text_7">
    <!-- Agent -->
    <g style="fill: #2f6db3" transform="translate(398.488861 199.238423) scale(0.14 -0.14)">
     <use xlink:href="#DejaVuSans-Bold-24"/>
     <use xlink:href="#DejaVuSans-Bold-4a" transform="translate(77.390625 0)"/>
     <use xlink:href="#DejaVuSans-Bold-48" transform="translate(148.96875 0)"/>
     <use xlink:href="#DejaVuSans-Bold-51" transform="translate(216.796875 0)"/>
     <use xlink:href="#DejaVuSans-Bold-57" transform="translate(287.984375 0)"/>
    </g>
    <!-- answer -->
    <g style="fill: #2f6db3" transform="translate(393.453236 216.265923) scale(0.14 -0.14)">
     <defs>
      <path id="DejaVuSans-Bold-5a" d="M 225 3500 
L 1313 3500 
L 1900 1088 
L 2491 3500 
L 3425 3500 
L 4013 1113 
L 4603 3500 
L 5691 3500 
L 4769 0 
L 3547 0 
L 2956 2406 
L 2369 0 
L 1147 0 
L 225 3500 
z
" transform="scale(0.015625)"/>
      <path id="DejaVuSans-Bold-55" d="M 3138 2547 
Q 2991 2616 2845 2648 
Q 2700 2681 2553 2681 
Q 2122 2681 1889 2404 
Q 1656 2128 1656 1613 
L 1656 0 
L 538 0 
L 538 3500 
L 1656 3500 
L 1656 2925 
Q 1872 3269 2151 3426 
Q 2431 3584 2822 3584 
Q 2878 3584 2943 3579 
Q 3009 3575 3134 3559 
L 3138 2547 
z
" transform="scale(0.015625)"/>
     </defs>
     <use xlink:href="#DejaVuSans-Bold-44"/>
     <use xlink:href="#DejaVuSans-Bold-51" transform="translate(67.484375 0)"/>
     <use xlink:href="#DejaVuSans-Bold-56" transform="translate(138.671875 0)"/>
     <use xlink:href="#DejaVuSans-Bold-5a" transform="translate(198.1875 0)"/>
     <use xlink:href="#DejaVuSans-Bold-48" transform="translate(290.578125 0)"/>
     <use xlink:href="#DejaVuSans-Bold-55" transform="translate(358.40625 0)"/>
    </g>
   </g>
   <g id="text_8">
    <!-- vs -->
    <g style="fill: #8a8a8a" transform="translate(486.832802 207.162642) scale(0.12 -0.12)">
     <use xlink:href="#DejaVuSans-Oblique-59"/>
     <use xlink:href="#DejaVuSans-Oblique-56" transform="translate(59.1875 0)"/>
    </g>
   </g>
   <g id="text_9">
    <!-- Gold -->
    <g style="fill: #c9962a" transform="translate(547.060963 200.86483) scale(0.14 -0.14)">
     <use xlink:href="#DejaVuSans-Bold-2a"/>
     <use xlink:href="#DejaVuSans-Bold-52" transform="translate(82.078125 0)"/>
     <use xlink:href="#DejaVuSans-Bold-4f" transform="translate(150.78125 0)"/>
     <use xlink:href="#DejaVuSans-Bold-47" transform="translate(185.0625 0)"/>
    </g>
    <!-- answer -->
    <g style="fill: #c9962a" transform="translate(536.485494 216.265923) scale(0.14 -0.14)">
     <use xlink:href="#DejaVuSans-Bold-44"/>
     <use xlink:href="#DejaVuSans-Bold-51" transform="translate(67.484375 0)"/>
     <use xlink:href="#DejaVuSans-Bold-56" transform="translate(138.671875 0)"/>
     <use xlink:href="#DejaVuSans-Bold-5a" transform="translate(198.1875 0)"/>
     <use xlink:href="#DejaVuSans-Bold-48" transform="translate(290.578125 0)"/>
     <use xlink:href="#DejaVuSans-Bold-55" transform="translate(358.40625 0)"/>
    </g>
   </g>
   <g id="text_10">
    <!-- Trace -->
    <g style="fill: #2f6db3" transform="translate(400.913705 307.412997) scale(0.14 -0.14)">
     <defs>
      <path id="DejaVuSans-Bold-37" d="M 31 4666 
L 4331 4666 
L 4331 3756 
L 2784 3756 
L 2784 0 
L 1581 0 
L 1581 3756 
L 31 3756 
L 31 4666 
z
" transform="scale(0.015625)"/>
      <path id="DejaVuSans-Bold-46" d="M 3366 3391 
L 3366 2478 
Q 3138 2634 2908 2709 
Q 2678 2784 2431 2784 
Q 1963 2784 1702 2511 
Q 1441 2238 1441 1747 
Q 1441 1256 1702 982 
Q 1963 709 2431 709 
Q 2694 709 2930 787 
Q 3166 866 3366 1019 
L 3366 103 
Q 3103 6 2833 -42 
Q 2563 -91 2291 -91 
Q 1344 -91 809 395 
Q 275 881 275 1747 
Q 275 2613 809 3098 
Q 1344 3584 2291 3584 
Q 2566 3584 2833 3536 
Q 3100 3488 3366 3391 
z
" transform="scale(0.015625)"/>
     </defs>
     <use xlink:href="#DejaVuSans-Bold-37"/>
     <use xlink:href="#DejaVuSans-Bold-55" transform="translate(57.234375 0)"/>
     <use xlink:href="#DejaVuSans-Bold-44" transform="translate(106.546875 0)"/>
     <use xlink:href="#DejaVuSans-Bold-46" transform="translate(174.03125 0)"/>
     <use xlink:href="#DejaVuSans-Bold-48" transform="translate(233.3125 0)"/>
    </g>
    <!-- metadata -->
    <g style="fill: #2f6db3" transform="translate(384.077611 324.428466) scale(0.14 -0.14)">
     <defs>
      <path id="DejaVuSans-Bold-50" d="M 3781 2919 
Q 3994 3244 4286 3414 
Q 4578 3584 4928 3584 
Q 5531 3584 5847 3212 
Q 6163 2841 6163 2131 
L 6163 0 
L 5038 0 
L 5038 1825 
Q 5041 1866 5042 1909 
Q 5044 1953 5044 2034 
Q 5044 2406 4934 2573 
Q 4825 2741 4581 2741 
Q 4263 2741 4089 2478 
Q 3916 2216 3909 1719 
L 3909 0 
L 2784 0 
L 2784 1825 
Q 2784 2406 2684 2573 
Q 2584 2741 2328 2741 
Q 2006 2741 1831 2477 
Q 1656 2213 1656 1722 
L 1656 0 
L 531 0 
L 531 3500 
L 1656 3500 
L 1656 2988 
Q 1863 3284 2130 3434 
Q 2397 3584 2719 3584 
Q 3081 3584 3359 3409 
Q 3638 3234 3781 2919 
z
" transform="scale(0.015625)"/>
     </defs>
     <use xlink:href="#DejaVuSans-Bold-50"/>
     <use xlink:href="#DejaVuSans-Bold-48" transform="translate(104.203125 0)"/>
     <use xlink:href="#DejaVuSans-Bold-57" transform="translate(172.03125 0)"/>
     <use xlink:href="#DejaVuSans-Bold-44" transform="translate(219.828125 0)"/>
     <use xlink:href="#DejaVuSans-Bold-47" transform="translate(287.3125 0)"/>
     <use xlink:href="#DejaVuSans-Bold-44" transform="translate(358.890625 0)"/>
     <use xlink:href="#DejaVuSans-Bold-57" transform="translate(426.375 0)"/>
     <use xlink:href="#DejaVuSans-Bold-44" transform="translate(474.171875 0)"/>
    </g>
   </g>
   <g id="text_11">
    <!-- LLM -->
    <g style="fill: #3a8f4a" transform="translate(675.994462 294.520277) scale(0.125 -0.125)">
     <defs>
      <path id="DejaVuSans-Bold-2f" d="M 588 4666 
L 1791 4666 
L 1791 909 
L 3903 909 
L 3903 0 
L 588 0 
L 588 4666 
z
" transform="scale(0.015625)"/>
      <path id="DejaVuSans-Bold-30" d="M 588 4666 
L 2119 4666 
L 3181 2169 
L 4250 4666 
L 5778 4666 
L 5778 0 
L 4641 0 
L 4641 3413 
L 3566 897 
L 2803 897 
L 1728 3413 
L 1728 0 
L 588 0 
L 588 4666 
z
" transform="scale(0.015625)"/>
     </defs>
     <use xlink:href="#DejaVuSans-Bold-2f"/>
     <use xlink:href="#DejaVuSans-Bold-2f" transform="translate(63.71875 0)"/>
     <use xlink:href="#DejaVuSans-Bold-30" transform="translate(127.4375 0)"/>
    </g>
    <!-- judge -->
    <g style="fill: #3a8f4a" transform="translate(670.400712 308.364027) scale(0.125 -0.125)">
     <defs>
      <path id="DejaVuSans-Bold-4d" d="M 538 3500 
L 1656 3500 
L 1656 63 
Q 1656 -641 1318 -1011 
Q 981 -1381 341 -1381 
L -213 -1381 
L -213 -647 
L -19 -647 
Q 300 -647 419 -503 
Q 538 -359 538 63 
L 538 3500 
z
M 538 4863 
L 1656 4863 
L 1656 3950 
L 538 3950 
L 538 4863 
z
" transform="scale(0.015625)"/>
     </defs>
     <use xlink:href="#DejaVuSans-Bold-4d"/>
     <use xlink:href="#DejaVuSans-Bold-58" transform="translate(34.28125 0)"/>
     <use xlink:href="#DejaVuSans-Bold-47" transform="translate(105.46875 0)"/>
     <use xlink:href="#DejaVuSans-Bold-4a" transform="translate(177.046875 0)"/>
     <use xlink:href="#DejaVuSans-Bold-48" transform="translate(248.625 0)"/>
    </g>
   </g>
   <g id="text_12">
    <!-- Tool selection -->
    <g style="fill: #3a8f4a" transform="translate(772.579627 41.17375) scale(0.12 -0.12)">
     <use xlink:href="#DejaVuSans-Bold-37"/>
     <use xlink:href="#DejaVuSans-Bold-52" transform="translate(54.9375 0)"/>
     <use xlink:href="#DejaVuSans-Bold-52" transform="translate(123.640625 0)"/>
     <use xlink:href="#DejaVuSans-Bold-4f" transform="translate(192.34375 0)"/>
     <use xlink:href="#DejaVuSans-Bold-3" transform="translate(226.625 0)"/>
     <use xlink:href="#DejaVuSans-Bold-56" transform="translate(261.4375 0)"/>
     <use xlink:href="#DejaVuSans-Bold-48" transform="translate(320.953125 0)"/>
     <use xlink:href="#DejaVuSans-Bold-4f" transform="translate(388.78125 0)"/>
     <use xlink:href="#DejaVuSans-Bold-48" transform="translate(423.0625 0)"/>
     <use xlink:href="#DejaVuSans-Bold-46" transform="translate(490.890625 0)"/>
     <use xlink:href="#DejaVuSans-Bold-57" transform="translate(550.171875 0)"/>
     <use xlink:href="#DejaVuSans-Bold-4c" transform="translate(597.96875 0)"/>
     <use xlink:href="#DejaVuSans-Bold-52" transform="translate(632.25 0)"/>
     <use xlink:href="#DejaVuSans-Bold-51" transform="translate(700.953125 0)"/>
    </g>
    <!-- accuracy -->
    <g style="fill: #3a8f4a" transform="translate(788.998065 53.165312) scale(0.12 -0.12)">
     <defs>
      <path id="DejaVuSans-Bold-5c" d="M 78 3500 
L 1197 3500 
L 2138 1125 
L 2938 3500 
L 4056 3500 
L 2584 -331 
Q 2363 -916 2067 -1148 
Q 1772 -1381 1288 -1381 
L 641 -1381 
L 641 -647 
L 991 -647 
Q 1275 -647 1404 -556 
Q 1534 -466 1606 -231 
L 1638 -134 
L 78 3500 
z
" transform="scale(0.015625)"/>
     </defs>
     <use xlink:href="#DejaVuSans-Bold-44"/>
     <use xlink:href="#DejaVuSans-Bold-46" transform="translate(67.484375 0)"/>
     <use xlink:href="#DejaVuSans-Bold-46" transform="translate(126.765625 0)"/>
     <use xlink:href="#DejaVuSans-Bold-58" transform="translate(186.046875 0)"/>
     <use xlink:href="#DejaVuSans-Bold-55" transform="translate(257.234375 0)"/>
     <use xlink:href="#DejaVuSans-Bold-44" transform="translate(306.546875 0)"/>
     <use xlink:href="#DejaVuSans-Bold-46" transform="translate(374.03125 0)"/>
     <use xlink:href="#DejaVuSans-Bold-5c" transform="translate(433.3125 0)"/>
    </g>
   </g>
   <g id="text_13">
    <!-- Path efficiency -->
    <g style="fill: #3a8f4a" transform="translate(769.210252 107.21892) scale(0.12 -0.12)">
     <defs>
      <path id="DejaVuSans-Bold-33" d="M 588 4666 
L 2584 4666 
Q 3475 4666 3951 4270 
Q 4428 3875 4428 3144 
Q 4428 2409 3951 2014 
Q 3475 1619 2584 1619 
L 1791 1619 
L 1791 0 
L 588 0 
L 588 4666 
z
M 1791 3794 
L 1791 2491 
L 2456 2491 
Q 2806 2491 2997 2661 
Q 3188 2831 3188 3144 
Q 3188 3456 2997 3625 
Q 2806 3794 2456 3794 
L 1791 3794 
z
" transform="scale(0.015625)"/>
      <path id="DejaVuSans-Bold-13ad" d="M 2841 4863 
L 2841 4128 
L 2222 4128 
Q 1984 4128 1891 4044 
Q 1797 3956 1797 3744 
L 1797 3500 
L 3078 3500 
L 3078 3744 
Q 3078 4316 3397 4588 
Q 3716 4863 4384 4863 
L 5241 4863 
L 5241 4128 
L 4622 4128 
Q 4388 4128 4297 4044 
Q 4206 3956 4206 3744 
L 4206 3500 
L 6600 3500 
L 6600 0 
L 5472 0 
L 5472 2700 
L 4206 2700 
L 4206 0 
L 4197 0 
L 3078 0 
L 3078 2700 
L 1797 2700 
L 1797 0 
L 678 0 
L 678 2700 
L 122 2700 
L 122 3500 
L 678 3500 
L 678 3744 
Q 678 4316 997 4588 
Q 1316 4863 1984 4863 
L 2841 4863 
z
M 5472 4863 
L 6600 4863 
L 6600 3950 
L 5472 3950 
L 5472 4863 
z
" transform="scale(0.015625)"/>
     </defs>
     <use xlink:href="#DejaVuSans-Bold-33"/>
     <use xlink:href="#DejaVuSans-Bold-44" transform="translate(70.609375 0)"/>
     <use xlink:href="#DejaVuSans-Bold-57" transform="translate(138.09375 0)"/>
     <use xlink:href="#DejaVuSans-Bold-4b" transform="translate(185.890625 0)"/>
     <use xlink:href="#DejaVuSans-Bold-3" transform="translate(257.078125 0)"/>
     <use xlink:href="#DejaVuSans-Bold-48" transform="translate(291.890625 0)"/>
     <use xlink:href="#DejaVuSans-Bold-13ad" transform="translate(359.71875 0)"/>
     <use xlink:href="#DejaVuSans-Bold-46" transform="translate(471.25 0)"/>
     <use xlink:href="#DejaVuSans-Bold-4c" transform="translate(530.53125 0)"/>
     <use xlink:href="#DejaVuSans-Bold-48" transform="translate(564.8125 0)"/>
     <use xlink:href="#DejaVuSans-Bold-51" transform="translate(632.640625 0)"/>
     <use xlink:href="#DejaVuSans-Bold-46" transform="translate(703.828125 0)"/>
     <use xlink:href="#DejaVuSans-Bold-5c" transform="translate(763.109375 0)"/>
    </g>
   </g>
   <g id="text_14">
    <!-- Task completion -->
    <g style="fill: #3a8f4a" transform="translate(764.219002 167.320341) scale(0.12 -0.12)">
     <defs>
      <path id="DejaVuSans-Bold-4e" d="M 538 4863 
L 1656 4863 
L 1656 2216 
L 2944 3500 
L 4244 3500 
L 2534 1894 
L 4378 0 
L 3022 0 
L 1656 1459 
L 1656 0 
L 538 0 
L 538 4863 
z
" transform="scale(0.015625)"/>
     </defs>
     <use xlink:href="#DejaVuSans-Bold-37"/>
     <use xlink:href="#DejaVuSans-Bold-44" transform="translate(55.328125 0)"/>
     <use xlink:href="#DejaVuSans-Bold-56" transform="translate(122.8125 0)"/>
     <use xlink:href="#DejaVuSans-Bold-4e" transform="translate(182.328125 0)"/>
     <use xlink:href="#DejaVuSans-Bold-3" transform="translate(248.828125 0)"/>
     <use xlink:href="#DejaVuSans-Bold-46" transform="translate(283.640625 0)"/>
     <use xlink:href="#DejaVuSans-Bold-52" transform="translate(342.921875 0)"/>
     <use xlink:href="#DejaVuSans-Bold-50" transform="translate(411.625 0)"/>
     <use xlink:href="#DejaVuSans-Bold-53" transform="translate(515.828125 0)"/>
     <use xlink:href="#DejaVuSans-Bold-4f" transform="translate(587.40625 0)"/>
     <use xlink:href="#DejaVuSans-Bold-48" transform="translate(621.6875 0)"/>
     <use xlink:href="#DejaVuSans-Bold-57" transform="translate(689.515625 0)"/>
     <use xlink:href="#DejaVuSans-Bold-4c" transform="translate(737.3125 0)"/>
     <use xlink:href="#DejaVuSans-Bold-52" transform="translate(771.59375 0)"/>
     <use xlink:href="#DejaVuSans-Bold-51" transform="translate(840.296875 0)"/>
    </g>
   </g>
   <g id="text_15">
    <!-- Insight score -->
    <g style="fill: #3a8f4a" transform="translate(774.975877 300.728011) scale(0.12 -0.12)">
     <defs>
      <path id="DejaVuSans-Bold-2c" d="M 588 4666 
L 1791 4666 
L 1791 0 
L 588 0 
L 588 4666 
z
" transform="scale(0.015625)"/>
     </defs>
     <use xlink:href="#DejaVuSans-Bold-2c"/>
     <use xlink:href="#DejaVuSans-Bold-51" transform="translate(37.203125 0)"/>
     <use xlink:href="#DejaVuSans-Bold-56" transform="translate(108.390625 0)"/>
     <use xlink:href="#DejaVuSans-Bold-4c" transform="translate(167.90625 0)"/>
     <use xlink:href="#DejaVuSans-Bold-4a" transform="translate(202.1875 0)"/>
     <use xlink:href="#DejaVuSans-Bold-4b" transform="translate(273.765625 0)"/>
     <use xlink:href="#DejaVuSans-Bold-57" transform="translate(344.953125 0)"/>
     <use xlink:href="#DejaVuSans-Bold-3" transform="translate(392.75 0)"/>
     <use xlink:href="#DejaVuSans-Bold-56" transform="translate(427.5625 0)"/>
     <use xlink:href="#DejaVuSans-Bold-46" transform="translate(487.078125 0)"/>
     <use xlink:href="#DejaVuSans-Bold-52" transform="translate(546.359375 0)"/>
     <use xlink:href="#DejaVuSans-Bold-55" transform="translate(615.0625 0)"/>
     <use xlink:href="#DejaVuSans-Bold-48" transform="translate(664.375 0)"/>
    </g>
   </g>
   <g id="text_16">
    <!-- Cost -->
    <g style="fill: #3a8f4a" transform="translate(803.94369 361.885994) scale(0.12 -0.12)">
     <defs>
      <path id="DejaVuSans-Bold-26" d="M 4288 256 
Q 3956 84 3597 -3 
Q 3238 -91 2847 -91 
Q 1681 -91 1000 561 
Q 319 1213 319 2328 
Q 319 3447 1000 4098 
Q 1681 4750 2847 4750 
Q 3238 4750 3597 4662 
Q 3956 4575 4288 4403 
L 4288 3438 
Q 3953 3666 3628 3772 
Q 3303 3878 2944 3878 
Q 2300 3878 1931 3465 
Q 1563 3053 1563 2328 
Q 1563 1606 1931 1193 
Q 2300 781 2944 781 
Q 3303 781 3628 887 
Q 3953 994 4288 1222 
L 4288 256 
z
" transform="scale(0.015625)"/>
     </defs>
     <use xlink:href="#DejaVuSans-Bold-26"/>
     <use xlink:href="#DejaVuSans-Bold-52" transform="translate(73.390625 0)"/>
     <use xlink:href="#DejaVuSans-Bold-56" transform="translate(142.09375 0)"/>
     <use xlink:href="#DejaVuSans-Bold-57" transform="translate(201.609375 0)"/>
    </g>
   </g>
   <g id="text_17">
    <!-- Latency -->
    <g style="fill: #3a8f4a" transform="translate(792.359002 420.652415) scale(0.12 -0.12)">
     <use xlink:href="#DejaVuSans-Bold-2f"/>
     <use xlink:href="#DejaVuSans-Bold-44" transform="translate(63.71875 0)"/>
     <use xlink:href="#DejaVuSans-Bold-57" transform="translate(131.203125 0)"/>
     <use xlink:href="#DejaVuSans-Bold-48" transform="translate(179 0)"/>
     <use xlink:href="#DejaVuSans-Bold-51" transform="translate(246.828125 0)"/>
     <use xlink:href="#DejaVuSans-Bold-46" transform="translate(318.015625 0)"/>
     <use xlink:href="#DejaVuSans-Bold-5c" transform="translate(377.296875 0)"/>
    </g>
   </g>
  </g>
 </g>
 <defs>
  <clipPath id="pe043d93a02">
   <rect x="7.2" y="7.2" width="886.8" height="440.4"/>
  </clipPath>
 </defs>
</svg>
